<?xml version="1.0" encoding="UTF-8"?>
<svg id="Layer_1" data-name="Layer 1" xmlns="http://www.w3.org/2000/svg" viewBox="0 0 222.84 80">
  <defs>
    <style>
      .cls-1, .cls-2, .cls-3, .cls-4 {
        fill: #fff;
      }

      .cls-2 {
        opacity: .8;
      }

      .cls-3 {
        opacity: .4;
      }

      .cls-5 {
        fill: #00568f;
      }

      .cls-4 {
        opacity: .6;
      }
    </style>
  </defs>
  <rect class="cls-5" width="222.84" height="80"/>
  <polygon class="cls-1" points="196.03 64.2 196.03 52.45 102.17 52.45 106.99 64.2 196.03 64.2"/>
  <path class="cls-1" d="M102.96,22.44h23.8v-6.45h-23.8v6.45ZM102.96,35.11h23.8v-6.45h-23.8v6.45ZM102.96,47.77h23.8v-6.44h-23.8v6.44Z"/>
  <path class="cls-1" d="M138.99,22.3h7.13c3.49,0,5.63,1.54,5.63,4.54v.09c0,2.68-2,4.49-5.5,4.49h-5.87l4.24,6.18,5.26,7.66.07.09,1.66,2.42h8.38l-7.96-11.35c4.15-1.5,6.99-4.72,6.99-9.85v-.09c0-3-.98-5.49-2.8-7.26-2.14-2.09-5.36-3.22-9.5-3.22h-14.91v31.78h7.17v-25.47Z"/>
  <path class="cls-1" d="M179.03,23.02c5.03,0,9.1,3.97,9.1,8.87s-4.07,8.87-9.1,8.87-9.1-3.97-9.1-8.87,4.07-8.87,9.1-8.87M195.34,31.88c0-8.78-7.3-15.89-16.3-15.89s-16.3,7.11-16.3,15.89,7.3,15.89,16.3,15.89,16.3-7.11,16.3-15.89Z"/>
  <polygon class="cls-1" points="34.06 47.77 40.4 47.77 53.49 16 45.76 16 37.32 38.15 28.89 16 20.98 16 34.06 47.77"/>
  <rect class="cls-1" x="58.64" y="16" width="7.17" height="31.78"/>
  <polygon class="cls-1" points="80.8 47.77 87.97 47.77 87.97 22.44 97.89 22.44 97.9 22.44 97.9 16 70.88 16 70.88 22.44 80.8 22.44 80.8 47.77"/>
  <g>
    <polygon class="cls-5" points="129.18 56.11 126.85 56.11 126.85 54.6 133.19 54.6 133.19 56.11 130.86 56.11 130.86 62.05 129.18 62.05 129.18 56.11"/>
    <rect class="cls-5" x="142.64" y="54.6" width="1.68" height="7.45"/>
    <polygon class="cls-5" points="154.32 54.6 156 54.6 156 60.56 159.82 60.56 159.82 62.05 154.32 62.05 154.32 54.6"/>
    <polygon class="cls-5" points="169.17 54.6 174.94 54.6 174.94 56.05 170.84 56.05 170.84 57.57 174.45 57.57 174.45 59.03 170.84 59.03 170.84 60.59 174.99 60.59 174.99 62.05 169.17 62.05 169.17 54.6"/>
    <path class="cls-5" d="M184.05,60.96l.99-1.16c.69.55,1.41.91,2.29.91.69,0,1.1-.27,1.1-.7v-.02c0-.42-.26-.63-1.54-.95-1.54-.38-2.54-.8-2.54-2.28v-.02c0-1.35,1.11-2.25,2.68-2.25,1.11,0,2.07.34,2.84.95l-.87,1.24c-.68-.46-1.34-.73-1.99-.73s-.98.29-.98.65v.02c0,.49.33.65,1.65.98,1.55.39,2.43.94,2.43,2.23v.02c0,1.48-1.16,2.31-2.81,2.31-1.16,0-2.33-.39-3.24-1.19"/>
  </g>
  <path class="cls-1" d="M200.19,15.61c-.58-.58-1.37-.93-2.26-.93s-1.68.36-2.26.93c-.58.58-.93,1.37-.93,2.26s.36,1.68.93,2.26h0c.58.58,1.38.93,2.26.93s1.68-.36,2.26-.93c.58-.58.93-1.37.93-2.26s-.36-1.68-.93-2.26ZM197.93,13.93c1.08,0,2.07.44,2.78,1.15h0c.71.71,1.15,1.69,1.15,2.78s-.44,2.07-1.15,2.78c-.71.71-1.69,1.15-2.78,1.15s-2.07-.44-2.78-1.15h0c-.71-.71-1.15-1.7-1.15-2.78s.44-2.07,1.15-2.78h0c.71-.71,1.69-1.15,2.78-1.15Z"/>
  <path class="cls-1" d="M197.19,17.58h.55c.36,0,.58-.02.67-.05.09-.03.16-.08.21-.16.05-.08.07-.17.07-.28,0-.12-.03-.22-.1-.3-.07-.08-.16-.12-.28-.14-.06,0-.24-.01-.54-.01h-.58v.94ZM196.44,19.71v-3.68h1.57c.39,0,.68.03.86.1.18.07.32.18.43.35.11.17.16.36.16.58,0,.28-.08.51-.24.69-.16.18-.4.29-.73.34.16.09.29.2.4.31.1.11.25.31.42.6l.45.72h-.89l-.53-.8c-.19-.29-.32-.47-.39-.54-.07-.07-.14-.13-.22-.15-.08-.03-.2-.04-.38-.04h-.15v1.54h-.75Z"/>
  <polygon class="cls-2" points="105.53 64.2 100.72 52.45 80.07 52.45 84.88 64.2 105.53 64.2"/>
  <polygon class="cls-4" points="83.43 64.2 78.61 52.45 57.96 52.45 62.78 64.2 83.43 64.2"/>
  <polygon class="cls-3" points="61.32 64.2 56.5 52.45 35.8 52.45 40.62 64.2 61.32 64.2"/>
</svg>